<?xml version="1.0" encoding="iso-8859-1"?>
<!-- Generator: Adobe Illustrator 19.0.0, SVG Export Plug-In . SVG Version: 6.00 Build 0)  -->
<svg version="1.1" id="Layer_1" xmlns="http://www.w3.org/2000/svg" xmlns:xlink="http://www.w3.org/1999/xlink" x="0px" y="0px"
	 viewBox="0 0 496.158 496.158" style="enable-background:new 0 0 496.158 496.158;" xml:space="preserve">
<path style="fill:#D8DBBA;" d="M248.082,0.003C111.07,0.003,0,111.062,0,248.085c0,137,111.07,248.07,248.082,248.07
	c137.006,0,248.076-111.07,248.076-248.07C496.158,111.063,385.088,0.003,248.082,0.003z"/>
<g>
	<path style="fill:#E5A300;" d="M306.691,142.076H163.156c-12.739,0-23.067,10.89-23.067,24.322v13.512
		c0,13.433,10.328,24.323,23.067,24.323h143.535c12.74,0,23.067-10.89,23.067-24.323v-13.512
		C329.759,152.966,319.432,142.076,306.691,142.076z"/>
	<path style="fill:#E5A300;" d="M150.379,161.3h-32.755c-4.933,0-8.934,4-8.934,8.933v8.437c0,4.933,4,8.933,8.934,8.933h32.755
		c4.932,0,8.933-4,8.933-8.933v-8.437C159.312,165.3,155.311,161.3,150.379,161.3z"/>
</g>
<path style="fill:#408921;" d="M381.023,229.544c0,0,0,31.283,0,32.999l3.524,8.532v-50.117L381.023,229.544z"/>
<path style="fill:#263C92;" d="M212.497,231.145l17.04,0.011c35.885-29.994,66.449-7.081,74.422,0.051l16.829,0.012
	C320.789,231.219,271.45,178.527,212.497,231.145z"/>
<rect x="163.159" y="229.859" style="fill:#62BB45;" width="224.91" height="33.32"/>
<path style="fill:#263C92;" d="M214.05,229.579l6.708,32.932c-0.613,23.316,10.323,39.121,10.323,39.121
	c5.767,5.126,10.892-0.642,10.892-0.642c12.174-20.503,65.359-25.631,65.359-25.631c5.125,4.485,11.535-0.641,11.535-0.641
	l0.365-45.14L214.05,229.579L214.05,229.579z"/>
<g>
	<path style="fill:#EA4949;" d="M423.161,229.863h-9.714c0,0,0,31.196,0,32.305h9.714c5.678,0,10.284-4.605,10.284-10.283v-11.739
		C433.445,234.469,428.839,229.863,423.161,229.863z"/>
	<path style="fill:#EA4949;" d="M62.01,236.912c-5.679,0-10.283,4.604-10.283,10.282v11.738c0,5.681,4.604,10.285,10.283,10.285
		h9.715c0,0,0-31.196,0-32.304H62.01V236.912z"/>
	<path style="fill:#EA4949;" d="M439.657,238.516h-8.654c0,0,0,14.487,0,15.003h8.654c2.637,0,4.774-2.138,4.774-4.776v-5.452
		C444.432,240.652,442.294,238.516,439.657,238.516z"/>
</g>
<path style="fill:#57AA39;" d="M399.292,220.958h-15.067c0,0,0,48.4,0,50.117h15.067c8.812,0,15.956-7.143,15.956-15.953v-18.212
	C415.248,228.1,408.104,220.958,399.292,220.958z"/>
<path style="fill:#62BB45;" d="M202.963,224.096H73.372c-5.267,0-9.536,4.27-9.536,9.538v40.533c0,5.268,4.269,9.538,9.536,9.538
	h129.59c5.266,0,9.535-4.27,9.535-9.538v-40.533C212.497,228.367,208.228,224.096,202.963,224.096z"/>
<path style="fill:#97E079;" d="M200.189,227.436c0,0-24.225,0-29.027,0c-4.803,0,38.131,34.788,38.131,30.303
	c0-4.486,0-21.196,0-21.196C209.293,231.514,205.217,227.436,200.189,227.436z"/>
<g>
	<path style="fill:#62BB45;" d="M184.302,281.767l-40.369-4.485c0,0-35.882,39.728-39.727,51.262c0,0-9.613,17.943,3.203,28.835
		l32.039,16.66c0,0,16.021,1.281,10.252-10.253c0,0-6.404-18.583,17.945-55.748L184.302,281.767z"/>
	<path style="fill:#62BB45;" d="M152.264,228.583c0,0-10.25-9.613-15.377-10.895v-67.282h-24.352c0,0-3.844,1.281-3.844,3.845
		h-25.63c0,0-13.459,10.894-4.487,35.885h8.331v35.883L152.264,228.583z"/>
</g>
<path style="fill:#57AA39;" d="M389.352,201.669v21.145l14.738-1.28C404.09,221.535,400.886,201.669,389.352,201.669z"/>
<path style="fill:#EFC866;" d="M303.109,146.242h-36.046c-12.509,0,58.694,43.522,58.694,32.118v-11.471
	C325.757,155.488,315.613,146.242,303.109,146.242z"/>
<g>
	<path style="fill:#97E079;" d="M80.496,171.232c1.924-9.29,18.584-12.815,18.584-12.815
		C76.331,152.969,80.496,171.232,80.496,171.232z"/>
	<path style="fill:#97E079;" d="M112.696,321.975c0,0-18.261,22.588,1.44,34.122C133.84,367.632,112.696,321.975,112.696,321.975z"
		/>
</g>
<path style="fill:#F29292;" d="M53.583,244.122c0,0,7.209-0.24,9.612-5.526C63.195,238.594,54.785,238.594,53.583,244.122z"/>
<path style="fill:#D8DBBA;" d="M423.393,231.204c0,0,4.026,6.908,8.351,7.208C431.744,238.413,430.061,231.507,423.393,231.204z"/>
<g>
</g>
<g>
</g>
<g>
</g>
<g>
</g>
<g>
</g>
<g>
</g>
<g>
</g>
<g>
</g>
<g>
</g>
<g>
</g>
<g>
</g>
<g>
</g>
<g>
</g>
<g>
</g>
<g>
</g>
</svg>
